<?xml version="1.0" encoding="UTF-8" standalone="no"?>
<!DOCTYPE svg PUBLIC "-//W3C//DTD SVG 1.1//EN" "http://www.w3.org/Graphics/SVG/1.1/DTD/svg11.dtd">
<svg width="100%" height="100%" viewBox="0 0 178 178" version="1.1" xmlns="http://www.w3.org/2000/svg" xmlns:xlink="http://www.w3.org/1999/xlink" xml:space="preserve" xmlns:serif="http://www.serif.com/" style="fill-rule:evenodd;clip-rule:evenodd;stroke-linejoin:round;stroke-miterlimit:2;">
    <g transform="matrix(5.75289,0,0,5.7515,-3.21359,-2.80377)">
        <ellipse cx="16.01" cy="15.942" rx="15.451" ry="15.455"/>
        <g transform="matrix(0.174168,0,0,0.17421,0.767017,0.484105)">
            <path d="M93.943,82.996L104.512,55.276C107.121,54.674 109.839,54.356 112.63,54.356C115.002,54.356 117.321,54.586 119.566,55.024L143.795,118.572C140.255,120.95 136.27,122.717 131.993,123.72L112.087,71.512L101.84,98.388C97.668,113.656 83.689,124.891 67.106,124.891C47.235,124.891 31.103,108.759 31.103,88.889C31.103,69.019 47.235,52.886 67.106,52.886C75.506,52.886 83.237,55.769 89.365,60.599L84.352,73.747C80.144,68.959 73.975,65.935 67.106,65.935C54.437,65.935 44.151,76.22 44.151,88.889C44.151,101.558 54.437,111.843 67.106,111.843C76.918,111.843 85.301,105.673 88.582,97.004L61.164,97.004L61.164,85.676L102.976,85.676L93.943,82.996Z" style="fill:white;"/>
        </g>
    </g>
</svg>
